<?xml version="1.0" standalone="no"?>
<!DOCTYPE svg PUBLIC "-//W3C//DTD SVG 20010904//EN"
 "http://www.w3.org/TR/2001/REC-SVG-20010904/DTD/svg10.dtd">
<svg version="1.0" xmlns="http://www.w3.org/2000/svg"
 width="512.000000pt" height="512.000000pt" viewBox="0 0 512.000000 512.000000"
 preserveAspectRatio="xMidYMid meet">

<g transform="translate(0.000000,512.000000) scale(0.100000,-0.100000)"
fill="#000000" stroke="none">
<path d="M152 4494 c-56 -28 -90 -63 -125 -128 -20 -38 -22 -57 -25 -273 l-4
-233 1972 0 1971 0 -3 233 -3 232 -30 54 c-31 56 -88 106 -148 128 -24 9 -471
12 -1793 12 l-1760 1 -52 -26z"/>
<path d="M975 3084 c-110 -57 -156 -184 -104 -291 80 -166 312 -159 390 12 45
98 -1 224 -102 275 -47 25 -141 27 -184 4z"/>
<path d="M870 2571 c-99 -20 -204 -109 -234 -197 l-14 -43 51 -40 c113 -87
241 -131 379 -131 147 0 310 57 412 143 l39 33 -25 56 c-32 70 -86 123 -157
157 -53 25 -65 26 -236 28 -99 1 -196 -2 -215 -6z"/>
<path d="M3100 2203 c-91 -29 -90 -26 -90 -426 0 -327 1 -346 20 -369 10 -14
33 -31 50 -38 l30 -12 0 -330 c0 -359 3 -377 56 -413 28 -19 55 -20 849 -23
451 -2 844 0 873 3 39 5 62 14 85 35 l32 28 3 350 3 349 32 14 c17 8 42 30 55
49 l23 34 -3 337 c-3 325 -4 339 -24 366 -11 15 -36 33 -55 40 -25 9 -272 12
-979 12 -520 0 -952 -3 -960 -6z m1056 -768 c11 -14 14 -60 14 -190 0 -216 0
-215 -109 -215 -46 0 -82 5 -89 12 -8 8 -12 67 -12 199 0 183 1 188 23 204 32
24 154 17 173 -10z"/>
</g>
</svg>
